<?xml version="1.0" encoding="UTF-8" standalone="no"?><!DOCTYPE svg PUBLIC "-//W3C//DTD SVG 1.1//EN" "http://www.w3.org/Graphics/SVG/1.1/DTD/svg11.dtd"><svg width="100%" height="100%" viewBox="0 0 200 200" version="1.1" xmlns="http://www.w3.org/2000/svg" xmlns:xlink="http://www.w3.org/1999/xlink" xml:space="preserve" xmlns:serif="http://www.serif.com/" style="fill-rule:evenodd;clip-rule:evenodd;stroke-linejoin:round;stroke-miterlimit:2;"><rect id="Plan-de-travail1" serif:id="Plan de travail1" x="0" y="0" width="200" height="200" style="fill:none;"/><g id="Plan-de-travail11" serif:id="Plan de travail1"><path d="M100,0c55.192,0 100,44.808 100,100c0,55.192 -44.808,100 -100,100c-55.192,0 -100,-44.808 -100,-100c0,-55.192 44.808,-100 100,-100Zm15.979,122.483c4.843,7.908 11.145,13.721 22.29,13.721c9.362,-0 15.343,-4.68 15.343,-11.145c0,-7.748 -6.145,-10.492 -16.45,-15l-5.649,-2.424c-16.305,-6.946 -27.137,-15.648 -27.137,-34.045c-0,-16.946 12.912,-29.847 33.091,-29.847c14.366,-0 24.695,5 32.137,18.091l-17.595,11.298c-3.874,-6.947 -8.053,-9.683 -14.542,-9.683c-6.618,-0 -10.813,4.198 -10.813,9.683c0,6.779 4.199,9.523 13.893,13.721l5.649,2.42c19.198,8.233 30.038,16.626 30.038,35.496c-0,20.343 -15.981,31.488 -37.442,31.488c-20.985,0 -34.542,-10 -41.176,-23.107l18.363,-10.667Zm-79.82,1.958c3.55,6.297 6.779,11.622 14.542,11.622c7.423,-0 12.107,-2.905 12.107,-14.199l-0,-76.831l22.595,0l-0,77.137c-0,23.396 -13.718,34.045 -33.74,34.045c-18.092,0 -28.569,-9.362 -33.897,-20.639l18.393,-11.135Z" style="fill:#c5c3c0;"/></g></svg>